<svg width="64" height="64" fill="none" xmlns="http://www.w3.org/2000/svg"><path d="M45.356 55.987l-26.667.025c-5.866.005-10.67-4.79-10.677-10.656l-.025-26.667C7.98 12.823 12.776 8.02 18.643 8.012l26.666-.025c5.867-.006 10.67 4.789 10.678 10.656l.025 26.666c.007 5.868-4.79 10.672-10.656 10.678z" fill="url(#a)"/><path d="M45.356 55.987l-26.667.025c-5.866.005-10.67-4.79-10.677-10.656l-.025-26.667C7.98 12.823 12.776 8.02 18.643 8.012l26.666-.025c5.867-.006 10.67 4.789 10.678 10.656l.025 26.666c.007 5.868-4.79 10.672-10.656 10.678z" fill="url(#b)"/><path d="M32 41.333c-5.145 0-9.333-4.186-9.333-9.333s4.188-9.333 9.333-9.333c5.145 0 9.333 4.186 9.333 9.333S37.145 41.333 32 41.333zm0-16A6.674 6.674 0 0025.333 32 6.674 6.674 0 0032 38.667 6.674 6.674 0 0038.667 32 6.674 6.674 0 0032 25.333zM42 24a2 2 0 100-4 2 2 0 000 4z" fill="#fff"/><path d="M40 49.333H24c-5.145 0-9.333-4.186-9.333-9.333V24c0-5.147 4.188-9.333 9.333-9.333h16c5.145 0 9.333 4.186 9.333 9.333v16c0 5.147-4.188 9.333-9.333 9.333zm-16-32A6.674 6.674 0 0017.333 24v16A6.674 6.674 0 0024 46.667h16A6.674 6.674 0 0046.667 40V24A6.674 6.674 0 0040 17.333H24z" fill="#fff"/><defs><radialGradient id="a" cx="0" cy="0" r="1" gradientUnits="userSpaceOnUse" gradientTransform="translate(25.84 56.047) scale(59.8653)"><stop stop-color="#FD5"/><stop offset=".328" stop-color="#FF543F"/><stop offset=".348" stop-color="#FC5245"/><stop offset=".504" stop-color="#E64771"/><stop offset=".643" stop-color="#D53E91"/><stop offset=".761" stop-color="#CC39A4"/><stop offset=".841" stop-color="#C837AB"/></radialGradient><radialGradient id="b" cx="0" cy="0" r="1" gradientUnits="userSpaceOnUse" gradientTransform="matrix(39.7507 0 0 26.4859 15.715 7.387)"><stop stop-color="#4168C9"/><stop offset=".999" stop-color="#4168C9" stop-opacity="0"/></radialGradient></defs></svg>