<svg width="64" height="64" fill="none" xmlns="http://www.w3.org/2000/svg"><path d="M32 5.333C17.272 5.333 5.333 17.272 5.333 32c0 14.728 11.939 26.667 26.667 26.667 14.728 0 26.667-11.939 26.667-26.667 0-14.728-11.94-26.667-26.667-26.667z" fill="#03A9F4"/><path d="M48 22.827c-1.176.521-2.665 1.01-4 1.173 1.357-.805 3.51-2.483 4-4-1.268.745-3.561 1.541-5.057 1.83C39.719 18.41 32 19.672 32 26.666v2.666c-5.333 0-10.533-4.062-13.77-8-3.005 5.076 2.478 8.919 3.103 9.334-1.076-.034-3.113-.855-4-1.334v.076c0 3.156 2.215 5.299 5.216 5.896-.548.151-1.216.695-3.786.695.834 2.58 5.03 3.944 7.904 4-3.49 2.705-9.502 2.772-10.667 2.636C27.985 49.688 46.225 43.32 45.31 26c1.29-.91 1.813-1.861 2.69-3.173z" fill="#fff"/></svg>